<?xml version="1.0" encoding="UTF-8"?><svg id="Layer_2" xmlns="http://www.w3.org/2000/svg" viewBox="0 0 93.89 95.1"><g id="Layer_1-2"><g id="Layer_1-3"><g><path d="M26.56,75.63c-1,1.6-2.9,2.5-4.2,2.8-2.2,.4-4.3,.6-5.9,1.9-.5,.4-1.3,.1-1.4-.5-.3-1.9,.2-4,1.1-5.3-.4,0-.7,.1-1.1,.3-.7,.3-1.4-.3-1.3-1,.6-2.2,2.1-5.1,4.4-6.4l-3.8-3.8c-.2-.2-.5-.5-.7-.7C6.26,64.53,1.66,73.33,.06,79.33c-.4,1.7,1.3,3,2.9,2.3,.8-.4,1.6-.6,2.5-.6-2,3-3.3,7.9-2.5,12.4,.3,1.5,2.1,2.2,3.3,1.2,3.8-3.1,8.7-3.4,13.8-4.4,3.8-.8,9.9-4.1,11.4-9.7-.4-.3-.8-.7-1.2-1.1l-3.7-3.8Z" fill="#fff"/><path d="M75.46,51.73c15-17,18.8-41.4,18.4-48.8,0-.8-.4-1.5-.9-2s-1.2-.8-2-.9c-7.4-.4-31.8,3.3-48.8,18.4l-5.4-2c-6-2.2-12.7-.4-16.8,4.4l-9.4,11.1c-1.3,1.6-.7,4,1.2,4.7l12,4.4c-3.3,5.4-5.6,10.1-7,13-.9,2.1-.5,4.5,1.1,6.2l15.8,15.8c1.6,1.6,4.1,2.1,6.2,1.1,3-1.4,7.7-3.7,13-7l4.4,12c.7,1.9,3.1,2.6,4.7,1.2l11-9.4c4.8-4.1,6.6-10.8,4.4-16.8l-1.9-5.4Zm-6.5-13.4c-3.8,3.8-9.8,3.8-13.6,0s-3.8-9.8,0-13.6,9.8-3.8,13.6,0c3.8,3.8,3.8,9.9,0,13.6Z" fill="#fff"/></g></g></g></svg>