<?xml version="1.0" encoding="utf-8"?>
<!-- Generator: Adobe Illustrator 26.5.0, SVG Export Plug-In . SVG Version: 6.00 Build 0)  -->
<svg version="1.1" id="Layer_1" xmlns="http://www.w3.org/2000/svg" xmlns:xlink="http://www.w3.org/1999/xlink" x="0px" y="0px"
	 viewBox="0 0 100 100" style="enable-background:new 0 0 100 100;" xml:space="preserve">
<path d="M50,2.5C23.8,2.5,2.5,23.8,2.5,50c0,26.2,21.3,47.5,47.5,47.5c26.2,0,47.5-21.3,47.5-47.5C97.5,23.8,76.2,2.5,50,2.5z
	 M83.9,20.9c0.2-0.3,0.4-0.5,0.6-0.8c6.3,7.2,10.3,16.4,11,26.5c0,0,0-0.1,0-0.1c-0.2-0.2-0.5-0.3-0.7-0.1c-0.1-0.9-0.6-1.6-1.1-2.4
	c-0.3,0.1-0.6-0.2-0.7-0.5c0-0.2,0-0.3,0-0.5c0-0.2-0.1-0.4-0.2-0.5c-0.2-0.5-0.4-1.1-0.5-1.7c-0.1-0.5-0.1-1-0.2-1.4
	c-0.1-0.3-0.3-0.6-0.3-0.9c0-0.2,0.1-0.4-0.1-0.6c-0.1-0.1-0.4-0.1-0.5-0.3c0-0.1,0-0.2,0-0.2c0-0.4-0.2-0.8-0.3-1.3
	c-0.1-0.4,0-0.7-0.1-1.1s-0.1-0.8-0.4-1c0.3-0.4,0-0.9-0.1-1.3c-0.2-0.5-0.2-1-0.2-1.5c0-0.1,0-0.2,0-0.3c0-0.1,0.1-0.1,0.2-0.2
	c0.1-0.1,0.2-0.4,0.1-0.5c-0.1-0.2-0.3-0.4-0.4-0.5c-0.3-0.5-0.6-0.9-0.9-1.4c-0.1-0.2-0.2-0.3-0.2-0.5c0-0.2,0.1-0.4,0.1-0.6
	c0.1-0.8-1.6-2.9-1.7-2.6c-0.3-0.3-0.6-0.6-0.9-0.9c-0.2-0.2-0.4-0.4-0.5-0.6c-0.5-0.6-0.9-1.2-1.2-1.8c-0.2,0-0.3,0-0.5-0.1
	C84.1,21.2,84.1,21,83.9,20.9z M60.6,5.6c0.1,0.1,0.3,0.1,0.4,0.2c0,0.2,0.1,0.4,0.1,0.6c-0.1-0.1-0.3,0-0.2,0.1
	c0.6,0.2,1.2,0.6,1.6,1.1c0,0.3,0.1,0.6,0.1,0.9c0.5,0.2,0.9,0.6,1.3,1c0.1,0.1,0.2,0.2,0.3,0.2c0.2,0,0.6,0,0.6,0.2
	c0,0,0.1,0,0.1,0c0.3,0.3,0.4,0.5,0.4,1c0,0.1,0,0.2,0,0.3c-0.1-0.1-0.2,0.1-0.2,0.2c0,0.1,0,0.2,0,0.3c0,0.1-0.1,0.1-0.1,0.2
	c-0.1,0.1,0.1,0.3,0.2,0.4c0.4,0.4,0.8,0.9,1,1.4c0.1,0.1,0.1,0.3,0,0.4c-0.1,0.1-0.1,0.1-0.2,0.2c-0.2,0.2,0.1,0.5,0.2,0.8
	c0,0.1,0,0.2,0,0.3c0,0.2,0.2,0.4,0.3,0.5c0.2,0.3,0.4,0.6,0.6,0.8c0.1,0.2,0.2,0.4,0.1,0.5c-0.2,0.1-0.4-0.1-0.5-0.2
	c-0.2-0.1-0.4-0.3-0.6-0.3c0,0.2-0.1,0.4-0.2,0.4c-0.2,0.1-0.4,0-0.5-0.1c-0.2-0.1-0.2-0.3-0.4-0.4c-0.2,0.1-0.3,0.1-0.5,0.1
	c0-0.3-0.3-0.5-0.6-0.5c-0.1,0-0.2,0-0.3-0.1c0-0.1,0-0.2,0-0.2c0-0.2-0.1-0.4-0.3-0.5c0.1,0.1,0,0.3-0.1,0.3c-0.1,0.1-0.2,0-0.4,0
	c0-0.1,0-0.3,0.1-0.4c-0.1-0.1-0.3-0.1-0.5-0.1c-0.2,0-0.3-0.2-0.3-0.3c0-0.1,0.2-0.3,0-0.4c-0.2,0.1-0.3,0.1-0.5,0.1
	c-0.1-0.2-0.3-0.4-0.4-0.6c0,0,0-0.1-0.1-0.1c0-0.1,0.2-0.2,0.3-0.1c0-0.2-0.2-0.3-0.3-0.3c0.2-0.1,0.3-0.4,0.1-0.5
	c-0.1,0-0.3,0.1-0.4,0.1c0-0.1,0-0.2-0.1-0.3c-0.1,0.3-0.6,0.3-0.8,0c0.1,0,0.1-0.1,0.2-0.1c0-0.1-0.1-0.1-0.1-0.2
	c0.1,0,0.1-0.1,0.2-0.1c0-0.1-0.1-0.2-0.2-0.3c-0.1,0-0.1-0.1-0.2-0.1c-0.1,0-0.1,0.1-0.1,0.1c-0.1,0.1-0.3,0.1-0.4-0.1
	c0.1-0.1,0-0.2,0-0.2s-0.2,0-0.3,0c0.1-0.2-0.1-0.3-0.2-0.5c-0.3-0.2-0.6-0.5-0.9-0.6c-0.1-0.1-0.3-0.2-0.3-0.3
	c-0.2,0.1-0.4,0-0.5-0.1c-0.1-0.1-0.3-0.1-0.5,0c-0.2,0.1-0.3,0.2-0.5,0.2S56,10.2,56,10c-0.3-0.1-0.5,0.3-0.8,0.3
	c-0.1,0-0.1,0-0.2-0.1c-0.1,0-0.2,0.1-0.3,0.1c-0.2,0-0.3-0.1-0.5-0.1c-0.2-0.1-0.4,0-0.4,0.2c0.1,0.1,0,0.3-0.2,0.3
	c-0.2,0.1-0.4,0.2-0.5,0.4c0,0.2,0,0.4-0.1,0.5c0.2,0.3,0.9,0.2,0.9,0.6c0,0.1,0,0.1,0,0.2c0.1,0.2,0.6-0.1,0.7,0.1c0,0,0,0.1,0,0.1
	c0.1,0.1,0.3,0,0.4,0c0.3-0.1,0.6,0,0.8,0.1c0.3,0.1,0.5,0.2,0.7,0.4c0.2,0.2,0.3,0.4,0.5,0.5c-0.1,0.1,0.1,0.3,0.3,0.4
	c0.2,0.1,0.4,0.2,0.6,0.2c0.3,0.1,0.7,0.3,1.1,0.3c0.1,0,0.2,0,0.3,0.1c0.2,0.1,0.2,0.3,0.2,0.5c-0.1,0.1-0.2,0.2-0.3,0.2
	c0,0.2,0,0.3,0,0.5c-0.3-0.2-0.5-0.3-0.8-0.5c-0.2-0.1-0.3-0.2-0.5-0.3c-0.1-0.1-0.2-0.2-0.4-0.1c-0.1,0-0.2,0.1-0.3,0.1
	c-0.1,0-0.3-0.1-0.4-0.1c-0.1,0-0.3,0.1-0.2,0.2c0,0,0.1,0,0.1,0.1c0.1,0,0.1,0.1,0.1,0.1c0.1,0.1,0.2,0.1,0.4,0.2
	c0.8,0.2,1.6,0.7,2.2,1.3c-0.1,0-0.2,0-0.2,0.1c0.1,0.1,0.2,0.2,0.3,0.4c-0.4,0-0.8-0.2-1.1-0.4c-0.2-0.1-0.4-0.3-0.6-0.2
	c0.3,0.6,1.2,0.5,1.4,1.1c-0.2-0.1-0.5-0.2-0.8-0.2c-0.4-0.1-0.9-0.2-1.3-0.2c0-0.2-0.2-0.5-0.4-0.4c-0.1-0.4-0.5-0.6-0.9-0.7
	c0,0.1,0,0.2-0.1,0.2c-0.1,0-0.2,0-0.3,0c-0.1,0.1-0.2,0.2-0.3,0.3c-0.1,0.1-0.3,0.1-0.4,0c0-0.1-0.1-0.1-0.1-0.2c0-0.2,0-0.5,0-0.7
	c-0.2,0.1-0.4,0.2-0.6,0.3c-0.1,0-0.1,0.1-0.2,0.2c0,0.1,0,0.2,0,0.3c0,0.1,0,0.2-0.1,0.3c0.1,0,0.2,0.3,0.3,0.4c0,0,0-0.1,0-0.1
	c-0.1,0.1-0.4,0.3-0.4,0.2c-0.1,0.1-0.2,0.1-0.3,0.1c0-0.1-0.1-0.3-0.2-0.3c0-0.1-0.1-0.2-0.2-0.3c-0.2,0.2-0.3,0.3-0.5,0.5
	c-0.1,0.1-0.2,0.2-0.3,0.1c0-0.1,0-0.1,0-0.2s0-0.2-0.1-0.2c0,0.1-0.2,0.2-0.3,0.2c0-0.1,0-0.2,0-0.3c0.1,0,0.3-0.1,0.3-0.3
	c0-0.1-0.1-0.2-0.1-0.3c-0.1-0.1-0.2-0.1-0.3,0c0.1,0.1,0,0.2-0.1,0.3c-0.1,0-0.2,0-0.3,0.1c0,0-0.1,0.1-0.1,0.1
	c-0.2,0.1-0.3-0.2-0.5-0.2c-0.2,0-0.3,0.2-0.4,0.4c-0.3-0.2-0.7-0.1-1,0.1c0.1,0.2,0,0.5-0.2,0.6c-0.1,0.1-0.3,0.3-0.3,0.5
	c-0.1-0.1-0.2,0.1-0.3,0.2s0,0.3,0,0.4c0,0.1-0.1,0.2-0.1,0.3c0,0.1,0,0.3,0.2,0.2c-0.1,0.2-0.1,0.4-0.1,0.6c0.1,0,0.3,0,0.4,0.1
	c0.3,0.3,0.4,0.7,0.4,1.1c0.4-0.1,0.9-0.2,1.3-0.1c0.1,0,0.2,0,0.3,0.1c0.2,0.1,0.2,0.4,0.4,0.6c0.2,0.2,0.6,0.1,0.8,0.3
	c0.1,0.1,0.1,0.1,0.2,0.2c0.4,0.3,1,0,1.4,0.2c0,0.1-0.1,0.3-0.1,0.4c0.2,0,0.3,0.2,0.2,0.4c0,0.2-0.1,0.3-0.1,0.5
	c0,0.1,0.1,0.1,0.1,0.2c0.2,0.2,0.3,0.4,0.5,0.6c0.2,0.2,0.3,0.4,0.6,0.4c0.1-0.1,0.1-0.1,0.2-0.2c0.1,0.1,0.2,0.2,0.3,0.2
	c-0.1-0.1-0.1-0.2-0.1-0.3c0.2,0,0.4-0.3,0.3-0.5c-0.2,0.1-0.3-0.2-0.3-0.4c-0.1-0.3-0.1-0.7-0.2-1c-0.1,0-0.2,0-0.3-0.1
	c0.3-0.2,0.7-0.4,1-0.6c0.1,0,0.1-0.1,0.2-0.2c0.1-0.1,0.1-0.2,0.1-0.3c0-0.4,0-0.8-0.2-1.1c-0.1-0.1-0.2-0.2-0.3-0.3
	c-0.2-0.1-0.3-0.2-0.5-0.4c0.1-0.2,0.2-0.4,0.4-0.5c0.2-0.3-0.5-0.6-0.3-0.8c0-0.1,0.1-0.1,0.1-0.1c0-0.1-0.1-0.2-0.2-0.2
	c0.1-0.2,0-0.3-0.1-0.5c0.3-0.2,0.6-0.2,0.9-0.1c0.1,0,0.2,0.1,0.2,0c0.1,0,0.1-0.1,0.1-0.2c0,0,0.1,0,0.2,0c0.3,0.1,0.7,0.3,1,0.5
	c0.2,0.1,0.3,0.3,0.5,0.3c0.2,0.1,0.4,0,0.6-0.1c-0.2,0.3,0.2,0.7,0.2,1c0,0.1,0,0.3-0.1,0.4c0.2-0.1,0.5-0.1,0.7,0
	c-0.1,0.1,0.1,0.2,0.3,0.2c0.1,0,0.2-0.2,0.4-0.2c0.1-0.5,0.1-0.9,0.2-1.4c0.4,0.4,0.8,0.8,1.1,1.2c0,0,0.1,0,0.1,0
	c0,0.1,0.1,0.2,0.2,0.1c0,0.2,0.1,0.3,0.3,0.3c0,0.1,0,0.2,0,0.2c0.2-0.1,0.5,0.2,0.4,0.4c0.1-0.1,0.4,0,0.5,0.1s0.2,0.3,0.3,0.5
	c0.3,0.3,0.8,0.4,1.2,0.3c0.1,0.2,0,0.4-0.2,0.6c-0.2,0.1-0.4,0.3-0.3,0.5c0.3-0.3,0.5-0.5,0.9-0.6c0.5-0.1,0.9,0.3,1.2,0.6
	c0,0.1-0.1,0.2-0.1,0.2c0.1,0,0.2,0.1,0.3,0.1c0.2,0.2-0.1,0.5-0.4,0.6c-0.3,0.1-0.6,0.2-0.7,0.4c0,0.1,0,0.1-0.1,0.2
	c-0.1,0.1-0.2,0.2-0.3,0.2c-0.1,0.1-0.2,0.2-0.1,0.3c-0.8,0.1-1.6,0.2-2.4,0.3c-0.2,0-0.4,0-0.6,0.2c-0.2,0.1-0.2,0.4-0.1,0.6
	c-0.2,0.1-0.5,0.2-0.7,0.4c-0.2,0.5-0.5,1-0.8,1.4c-0.1,0.1-0.2,0.2-0.3,0.3c0.2-0.1,0.4-0.1,0.6-0.2c0.3-0.9,1.2-1.6,2.2-1.8
	c0.1,0,0.2,0,0.2,0c0.3,0.1,0.2,0.4,0.2,0.7c-0.3,0.1-0.6,0.1-0.9,0c-0.1,0.1,0.1,0.2,0.2,0.2c0.3,0,0.5,0.1,0.8,0.1
	c0,0.1,0,0.2,0,0.3c-0.1,0-0.2,0.1-0.1,0.2c0.1,0,0.1,0,0.2,0s0.1,0.1,0.1,0.1c0,0,0,0-0.1,0.1c-0.1,0.1,0,0.2,0.1,0.2
	c0.1,0,0.2,0.1,0.2,0.2c0.1-0.1,0.3-0.1,0.4,0c-0.1,0-0.1,0.1-0.1,0.1s0.1,0.1,0.2,0.1c0.1,0,0.1,0,0.2,0c0.1,0,0.2,0.1,0.2,0.1
	c0.1,0,0.1-0.1,0.2-0.1c0.1-0.1,0.3-0.1,0.4-0.1c0,0,0,0.1,0,0.1c0.1,0,0.1,0,0.2,0c0.1,0,0.1,0.1,0.1,0.1c0,0.1-0.1,0.1-0.1,0.1
	c-0.1,0.1-0.3,0.2-0.4,0.3c0,0-0.1,0-0.1,0.1c-0.1,0-0.2,0-0.2,0c0,0-0.1,0.1-0.1,0.1c-0.1,0.1-0.3-0.1-0.4,0c0.1,0.1,0.1,0.3,0,0.4
	s-0.2,0.2-0.3,0.4c0,0.1,0,0.1-0.1,0.2c-0.1,0.1-0.2,0.1-0.2,0s-0.1-0.1-0.2-0.2c0.1-0.1-0.1-0.3-0.1-0.4c0-0.1,0-0.1,0.1-0.2
	c0.1-0.1,0.2-0.3,0.4-0.4c0.1,0,0.1,0,0.2-0.1s0.1-0.1,0-0.2c-0.1,0-0.2,0-0.2,0.1c-0.1,0,0-0.1,0-0.2s0.1-0.2,0.1-0.2
	c-0.1,0.1-0.3,0.2-0.5,0.3c0.1,0.1-0.1,0.3-0.3,0.3s-0.3,0.1-0.4,0.2c0.1,0,0.1,0.1,0.1,0.2c-0.4,0.3-0.8,0.5-1.2,0.8
	c-0.3,0.2-0.7,0.6-0.7,1c0,0.2,0.5,0.4,0.3,0.6c-0.1,0.3-1,0.3-1.4,0.7c-0.1,0.1-0.2,0.2-0.3,0.3c-0.1,0.2-0.2,0.3-0.3,0.5
	c-0.1,0.2-0.2,0.4-0.3,0.6c-0.2,0.5-0.5,1-0.5,1.6c-0.1,0.6,0.5,1.3,0.3,1.6s-1,1-1.3,1c-0.3,0-0.5,0-0.6,0.1
	c-0.1,0.2-0.2,0.4-0.3,0.6c-0.3,0.6-1.2,0.8-1.4,1.4c-0.1,0.4,0,0.8,0.2,1.2c0.2,0.5,0.4,1.1,0.6,1.6c0.3,0.7,0.4,1.6-0.1,2.1
	c-0.6-0.4-1-1.1-1.3-1.7c-0.1-0.2-0.2-0.3-0.2-0.5c0-0.1,0-0.3,0-0.4c0-0.6-0.7-1.2-1.3-1.1c-0.2,0-0.3,0.1-0.5,0
	c-0.1-0.1-0.1-0.2-0.2-0.3c-0.2-0.2-0.5-0.2-0.8-0.2c-0.5,0-0.9,0-1.4,0.1c-0.2,0-0.4,0-0.6,0.1c-0.2,0.1-0.2,0.4,0,0.5
	c-0.1,0-0.2,0-0.4,0c-0.1,0.2-0.3,0.4-0.5,0.4c-0.1-0.4-0.4-0.7-0.8-0.7c-0.1,0-0.2,0-0.3,0c-0.1,0-0.2-0.1-0.3-0.1
	c-0.3-0.1-0.6,0-0.8,0.1c-0.6,0.2-1.2,0.4-1.7,0.8s-0.8,1-0.8,1.6c0,0.2-0.1,0.6-0.3,0.5c-0.2,0.8-0.4,1.6-0.3,2.4
	c0.1,1,0.6,1.9,1,2.8c0.1,0.2,0.2,0.3,0.3,0.4c0.2,0.1,0.4,0.2,0.6,0.2c0.2,0.1,0.4,0.3,0.3,0.5c0.7-0.2,0.5-0.4,1.2-0.4
	c1.1,0,1.2,0.1,1.2,0c0.4-0.1,0.4-0.6,0.8-0.7c-0.3-0.2-0.3-0.8,0-1.1c0.3-0.3,0.7-0.4,1.1-0.5c0.3-0.1,0.7-0.1,0.9,0.1
	c0.1-0.2,0.4-0.1,0.5,0.1c0.1,0.2,0,0.4-0.2,0.6c-0.1,0.2-0.3,0.3-0.3,0.5c0,0.4,0,0.8-0.2,1.2c-0.1-0.1-0.3-0.2-0.4-0.2
	c0.2,0.7,0,1.5-0.4,2.1c0.1,0.2,0.4,0.3,0.7,0.3c0.6,0.1,1.3-0.3,1.9-0.2c0.4,0,0.9,0.2,1.2,0.4c0.1,0.1,0.2,0.1,0.3,0.2
	c0.3,0.4-0.2,0.8-0.2,1.3c0,0.3,0.1,0.6,0.1,0.9c0,0.3-0.2,0.5-0.2,0.8c0,0.3,0.2,0.5,0.4,0.7c0.3,0.4,0.6,0.7,0.9,1.1
	c0.5,0.1,1,0.2,1.5-0.1c0.1-0.1,0.2-0.2,0.4-0.3c0.3-0.2,0.8-0.2,1.1-0.1s0.7,0.4,1,0.6c0,0.1,0,0.3,0,0.4c0.3-0.4,0.6-0.8,1-1.1
	c0.1-0.1,0.1-0.1,0.1-0.2c0-0.1,0-0.3,0-0.4c0-0.4,0.5-0.7,0.9-0.6c-0.1-0.1,0.1-0.3,0.2-0.3s0.3,0,0.4,0c0.5,0,0.9-0.6,1.3-0.9
	c0.2-0.1,0.5-0.2,0.6,0c0,0.3-0.6,0.3-0.7,0.7c0,0.2,0.3,0.4,0.3,0.6c0,0.2-0.2,0.3-0.3,0.5s0,0.5,0.2,0.3c-0.2,0.2,0.2,0.5,0.4,0.3
	c0.2-0.1,0.2-0.4,0.1-0.6c-0.1-0.2-0.3-0.4-0.4-0.6c0.5-0.2,1-0.5,1.5-0.7c0.3-0.1,0.7-0.2,0.8,0c0.1,0.1,0.1,0.2,0.1,0.3
	c0.1,0.3,0.5,0.3,0.8,0.2c0.3-0.1,0.6-0.2,0.9-0.1c0.1,0.1,0.2,0.2,0.4,0.2c0.1,0,0.2,0,0.3-0.1c0.7-0.3,1.6-0.7,2.3-0.3
	c0.2,0.1,0.3,0.3,0.4,0.4c0.4,0.4,1,0.8,1.6,0.9c0.3,0.1,0.6,0.4,0.8,0.6c0.1,0.2,0.4,0.5,0.6,0.5c0.7-0.2,1.4-0.3,2.1-0.3
	c0.7,0,1.5,0.2,1.9,0.8c0.3,0.5,0.3,1.1,0.7,1.4c0.1,0,0.1,0.1,0.2,0.1c0.2,0.3-0.4,0.7-0.2,1c0.1,0,0.2,0.2,0.2,0.3
	c0.3-0.1,0.6-0.1,0.9-0.1c-0.2,0.3-0.5,0.6-0.7,0.9c0.5-0.1,0.9-0.5,1.1-0.9c0.5,0.2,1.1,0.3,1.6,0.2c0.2,0,0.3,0,0.5,0.1
	c0.2,0.2,0.1,0.4,0,0.6c0.2-0.3,0.5-0.4,0.8-0.5s0.7,0,1-0.1c0.4-0.1,0.8-0.3,1.2-0.2c0.5,0.1,0.9,0.6,1.3,0.5
	c0.1,0,0.3-0.1,0.4-0.1c0.1,0,0.1,0.1,0.2,0.1c0.2,0.3,0.2,0.7,0.1,1.1c-0.1,0.7-0.2,1.5-0.6,2.1c-0.5,0.9-1.4,1.5-1.6,2.4
	c0-0.1-0.2,0-0.2,0c-0.3,0.3-0.4,0.8-0.4,1.2c-0.1,0.7-0.3,1.4-0.6,2.1c-0.1,0.1-0.1,0.3-0.2,0.4c-0.1,0-0.1,0.1-0.2,0.1
	c0,0.1,0,0.1,0,0.2c0,0.2-0.2,0.5-0.3,0.7c-0.2,0.3-0.5,0.7-0.7,1c-0.3,0.4-0.6,0.9-1.1,1.1c-0.3,0.2-0.6,0.2-0.9,0.4
	c-0.4,0.2-0.7,0.4-1,0.7c-0.7,0.5-1.4,1.1-2,1.7c-0.1,0.2-0.3,0.3-0.4,0.5c0,0.1-0.1,0.3-0.1,0.4c-0.1,0.1-0.2,0.2-0.3,0.4
	c-0.7,0.7-1.4,1.5-2.2,2.1c-0.3,0.2-0.6,0.4-0.9,0.7c-0.2,0.2-0.4,0.4-0.6,0.6c-0.8,0.8-1.9,1.1-3,0.9c0,0.1,0,0.2,0,0.4
	c0.2-0.1,0.3,0.1,0.3,0.3c0,0.2-0.2,0.3-0.3,0.4c-0.8,0.7-1.7,1.1-2.7,1.2c-0.2,0-0.4,0-0.5,0.1c-0.1,0.1-0.2,0.1-0.2,0.2
	c-0.3,0.3-0.7,0.5-1.1,0.4c-0.2,0.1-0.3,0.1-0.5,0c0,0.2,0,0.3-0.1,0.4S64,86,63.8,85.9c0.1,0.3-0.2,0.5-0.5,0.6
	c-0.3,0.1-0.6,0.3-0.9,0.4c-0.2,0.1-0.3,0.2-0.4,0.3c0.2,0,0.3,0.1,0.5,0.1c-0.7,0.3-1.5,0.6-2.1,1.1c-0.1,0.2,0,0.4,0.2,0.5
	c-0.1,0.1-0.3,0.2-0.5,0.2c-0.9,0-1.8,0.1-2.7-0.2c0.3-0.4,0.6-0.8,0.9-1.2c0.1-0.2,0.2-0.3,0.3-0.5c0.1-0.3,0.1-0.6,0.3-0.8
	c0.2-0.4,0.8-0.7,0.7-1.1c-0.1,0-0.2-0.1-0.1-0.2c0.7-0.6,1.2-1.3,1.8-2.1c0.1-0.1,0.1-0.2,0.1-0.3c0-0.1-0.1-0.2-0.1-0.2
	c0-0.1,0-0.2,0.1-0.3c0.5-0.9,0.9-1.8,1.2-2.8c0.3-0.7,0.5-1.4,0.7-2c0.1-0.4,0.3-0.9,0.1-1.3c-0.2-0.6-0.7-0.9-1.3-1.2
	c-0.5-0.3-1.1-0.5-1.6-0.7c-0.5-0.2-1-0.3-1.3-0.7c-0.2-0.2-0.2-0.5,0-0.6c-0.8-0.9-2.1-1.9-2.1-3.1c0-0.2-0.2-0.2-0.3-0.3
	c-0.3-0.5-0.8-0.9-1.3-1.2c0-0.2,0.1-0.5,0.1-0.7c-0.3,0-0.3-0.4-0.1-0.7c0.2-0.2,0.4-0.3,0.7-0.5c0.2-0.2,0.4-0.5,0.2-0.7
	c-0.1,0.1-0.2,0.2-0.3,0.2c-0.1-0.1-0.2-0.2-0.4-0.1c0-0.1,0.1-0.3,0.2-0.3c-0.1-0.2-0.1-0.4,0-0.5c-0.1,0-0.2-0.1-0.2-0.2
	c0.1-0.1,0.2-0.1,0.4-0.1c-0.1-0.3,0.1-0.6,0.4-0.7c-0.1-0.2-0.1-0.5,0.1-0.6c0.2-0.2,0.7-0.1,0.8-0.4c-0.1,0-0.2-0.2-0.1-0.2
	c0.1-0.1,0.2-0.1,0.4-0.2c-0.1-0.1-0.1-0.2,0-0.3c0.1-0.1,0.2-0.1,0.4-0.2c0.3-0.1,0.6-0.5,0.6-0.8c0-0.1,0-0.2,0-0.2
	c0-0.5,0-1.1,0-1.6c0-0.2,0-0.4-0.1-0.6c-0.1-0.1-0.3-0.2-0.4-0.3c-0.1-0.1-0.3-0.2-0.2-0.4c0-0.2,0.2-0.3,0.1-0.5
	c-0.1,0-0.2,0-0.3,0c-0.1-0.2-0.3-0.4-0.5-0.5s-0.5,0-0.6,0.2c0,0.1,0,0.2-0.1,0.3c-0.1,0.1-0.5,0-0.5,0.2c0,0.2,0.3,0.2,0.3,0.4
	c-0.2,0.3-0.7,0.2-0.8-0.1c0,0.1-0.2,0.1-0.3,0c-0.1-0.1-0.1-0.2-0.1-0.3c-0.2-0.2-0.6,0-0.9-0.2c-0.1,0-0.1-0.1-0.2-0.2
	s-0.2,0.1-0.1,0.1c-0.1,0.1-0.2,0-0.2-0.1s0-0.2-0.1-0.3C53.6,57.2,53.3,57,53,57c-0.1-0.2-0.3-0.4-0.5-0.5c0.1,0.1,0.2,0.3,0.2,0.4
	c-0.3-0.1-0.5-0.2-0.6-0.4c-0.1-0.2,0-0.3,0-0.5c0-0.6-0.6-0.9-1.1-1.2c-0.1-0.1-0.2-0.2-0.2-0.3c0-0.1,0.1-0.2,0.1-0.2
	c0-0.1,0-0.1-0.1-0.2c0,0-0.1,0-0.1,0.1c-0.4,0.1-0.8,0-1.2-0.1c-0.4-0.1-0.7-0.4-1.1-0.5c-0.2,0-0.4,0-0.6-0.1
	c-0.4-0.1-0.6-0.4-0.8-0.7c-0.6-0.7-1.4-1.4-2.3-1.1c-0.1,0.4-0.6,0.3-1,0.2c-1.4-0.6-2.7-1.3-3.9-2.1c-0.6-0.4-1.3-0.9-1.7-1.5
	c-0.1-0.2-0.2-0.4-0.2-0.6c0-0.1,0.1-0.2,0.1-0.3c0.3-0.9-0.2-1.8-0.7-2.6c-0.3-0.6-0.7-1.1-1.1-1.6c-0.2-0.1-0.2-0.4,0-0.6
	c-0.5-0.6-1-1.4-1.3-2.1c-0.1-0.3-0.2-0.6-0.3-0.9c-0.1-0.4,0-0.8-0.1-1.1c-0.1-0.4-0.4-0.7-0.8-0.7c-0.2,0.7,0,1.4,0.2,2.1
	c0.2,0.8,0.5,1.6,0.7,2.4c0.2,0.5,0.3,1,0.5,1.6c0.1,0.4,0.3,0.7,0.5,1.1c-0.2,0.1-0.3,0.3-0.5,0.4c-0.2-0.6-0.4-1.2-0.8-1.6
	c-0.1-0.1-0.1-0.2-0.2-0.3c0-0.1,0-0.2,0-0.3c0.1-0.5-0.1-1-0.4-1.3c-0.5-0.2-0.8-0.7-0.8-1.2c0,0.2,0.3,0.1,0.4,0s0.1-0.3,0-0.5
	c-0.3-1.3-0.5-2.6-0.8-3.8c0-0.2-0.1-0.3-0.2-0.4c-0.1-0.2-0.3-0.2-0.4-0.4c-0.4-0.3-0.7-0.9-0.7-1.4c0-0.1,0-0.2,0.1-0.3
	c-0.1-0.4-0.1-0.8-0.2-1.2c0-0.1,0-0.3,0-0.4c-0.1-0.4-0.1-0.9,0-1.3c0.1-0.4,0.2-0.8,0.3-1.1c0.1-0.3,0.2-0.6,0.3-0.9
	c0.1-0.4,0.3-0.8,0.6-1c0.1-0.1,0.3-0.2,0.3-0.3c0-0.1,0.1-0.2,0.1-0.3c0-0.1,0.1-0.3,0.2-0.4c0.4-0.6,0.7-1.3,0.7-2
	c0.1,0.2,0.4,0.3,0.6,0.3c0,0.1,0,0.2,0,0.3c0.2,0,0.3-0.2,0.3-0.4c0-0.5,0-1-0.3-1.4c-0.1-0.1-0.2,0-0.2,0.1s0,0.2,0.1,0.3
	c0.1,0.3,0.1,0.6-0.1,0.8c-0.4-0.5-0.6-1-0.6-1.6c0.1-0.1,0.2-0.2,0.3-0.3c0.1-0.5,0.2-1.1,0.1-1.7c0-0.1,0-0.1,0-0.2
	c0-0.1,0.1-0.2,0.2-0.3c0.3-0.4,0.3-0.9,0.2-1.4C34,19,34,18.8,34,18.6c0.1-0.5,0.3-1,0.3-1.5c0-0.2,0.1-0.4,0.1-0.6
	c-0.1-0.4-0.2-0.8-0.2-1.2c-0.1,0-0.3-0.1-0.4-0.1c0-0.1,0-0.3-0.1-0.4c0-0.2,0-0.5-0.2-0.6c0.1-0.1,0.2-0.1,0.3-0.2
	c-0.1-0.1-0.2-0.1-0.2,0c0-0.1,0-0.2,0-0.3c-0.4-0.1-0.8,0-1.2,0.1c0,0.1-0.1,0.1-0.1,0.2c-0.3,0-0.5,0.1-0.8,0.2
	c-0.1,0.1-0.3,0.2-0.4,0.2c-0.1-0.2-0.3-0.4-0.4-0.5c0-0.1,0.1-0.2,0.1-0.3c-0.2,0-0.4-0.1-0.5-0.2c0.3-0.2,0.6-0.4,0.9-0.7
	c-0.1,0-0.2,0-0.3,0c0-0.2,0.1-0.3,0.2-0.4c0.4-0.4,0.9-0.7,1.4-0.8c-0.1-0.2,0.2-0.3,0.4-0.2c0.2,0.1,0.4,0.3,0.6,0.2
	c0.3-0.1,0.4-0.5,0.7-0.4c-0.1-0.1-0.2-0.3-0.3-0.3c0.2-0.3,0.5-0.6,0.8-0.9c0.2,0.1,0.4,0.3,0.4,0.5c0.1-0.1,0.3-0.1,0.4,0
	c0.4-0.4,0.7-0.9,1.1-1.3c0.5,0.2,1-0.1,1.5,0c0.3,0,0.6,0.2,0.8,0.5c0,0.1,0,0.2,0,0.3c0.2,0.1,0.3,0.3,0.4,0.4
	c0.3,0.4,0.5,0.8,0.5,1.3c0,0.2,0,0.5,0.2,0.5c0.1-0.2,0.4-0.4,0.7-0.3c-0.1,0,0,0.1,0,0.2c0.1,0,0.1,0,0.2,0c0.3,0,0.5-0.1,0.8-0.1
	c0.1,0.2,0.5,0.2,0.6,0c0,0.2,0,0.3,0.1,0.5c0.1,0,0.2,0,0.3,0c-0.1,0.1-0.1,0.2,0,0.3c0.1,0,0.2-0.1,0.4-0.1c0,0.1,0.1,0.1,0.1,0.2
	c0.6,0.3,1.1,0.6,1.7,0.9c-0.2,0.2-0.6,0.3-0.9,0.1c0.3,0.4,0.9,0.5,1.4,0.3c0.4,0.6,1.5,0.1,2,0.6c0.2-0.2,0.5-0.1,0.8-0.1
	c0.3,0,0.6-0.1,0.6-0.3c0.2,0.1,0.4,0.4,0.5,0.6c0.2-0.3,0.5-0.4,0.8-0.5c-0.1-0.1-0.2-0.2-0.3-0.3c0.1,0,0.3-0.1,0.4-0.1
	c-0.2-0.2-0.4-0.5-0.6-0.7c0.2-0.1,0.1-0.5-0.1-0.5c-0.1,0.1-0.3,0-0.4-0.1s-0.2-0.2-0.3-0.3c-0.1-0.1-0.3,0-0.3,0.1
	c-0.1-0.1-0.3-0.2-0.4,0c0.2,0.1,0.1,0.4-0.1,0.4c0.1,0,0.1,0.3,0,0.4c-0.1,0.1-0.3,0.1-0.4,0.3c0.2,0.1,0.3,0.1,0.5,0.2
	c-0.3,0.1-0.6,0.1-1,0c0-0.2-0.2-0.3-0.3-0.3c0,0.1,0,0.2-0.1,0.2c-0.1,0-0.2,0-0.4-0.1c-0.1,0.1-0.1,0.2-0.2,0.3
	c-0.1,0-0.2-0.1-0.3-0.2c-0.1,0.2-0.3,0.2-0.5,0.2c-0.2-0.1-0.3-0.2-0.5-0.3c0.1-0.1,0.2-0.2,0.4-0.2C45.1,13,44.9,13,44.6,13
	c0-0.1,0.1-0.2,0.1-0.4c0.3,0.1,0.7,0.1,1.1,0.1c-0.2-0.2-0.5-0.4-0.8-0.4c-0.2,0-0.4-0.1-0.3-0.2c0.3,0,0.7,0,1,0
	c-0.1-0.1,0.1-0.3,0.2-0.3c0-0.1,0-0.2,0-0.3c0.1,0,0.2-0.1,0.4-0.1c-0.2-0.3-0.6-0.1-1,0c-0.2,0.1-0.4,0.1-0.6,0.1
	c-0.1,0.3-0.6,0.4-0.8,0.2c0.1-0.1,0.1-0.3,0.1-0.5c0.1,0,0.2-0.1,0.3-0.1c-0.3-0.2-0.7-0.2-0.9,0.1c0.1,0,0.2,0.2,0.1,0.2
	c-0.2,0-0.4,0.1-0.6,0.1c0.1-0.1,0.1-0.2,0.2-0.2c-0.3-0.1-0.6-0.3-0.8-0.5c-0.2,0-0.4,0-0.6,0c-0.2-0.3-0.3-0.6-0.5-1
	c-0.4,0.2-0.9-0.1-0.9-0.6c0-0.1,0-0.3-0.1-0.4c0.1,0,0.3-0.2,0.2-0.3c-0.1-0.2-0.3-0.2-0.4-0.2c-0.2,0-0.3,0.2-0.4,0.3
	c0-0.2,0-0.4-0.1-0.6C39.6,8.3,40,8,40,7.7c-0.2-0.1-0.2-0.3,0-0.4c-0.3-0.1-0.7-0.1-1,0.1c0-0.1,0-0.2,0.1-0.4
	c-0.1-0.1-0.2,0-0.4,0c0,0,0,0,0,0c-0.1,0.1-0.1,0.1-0.2,0.2c0,0,0,0,0,0.1c0,0-0.1,0-0.1,0c-0.2,0.2-0.5,0.3-0.7,0.3
	c-0.2,0-0.2,0-0.3,0c0,0-0.1,0-0.1,0c0,0,0,0,0,0c0,0,0,0-0.1,0c-0.2,0-0.4,0.1-0.5,0.2c-0.5,0.4-1,0.7-1.5,1.1
	c0.1,0,0.2,0.1,0.2,0.2c0,0.1-0.1,0.2-0.2,0.2S35,9.3,35,9.4c-0.2,0.1-0.5,0.2-0.6-0.1c-0.2,0.1-0.5,0.2-0.7,0.2
	c-0.1-0.5,0.8-0.6,0.9-1.1c0.1,0,0.2-0.1,0.3-0.1c0-0.1-0.1-0.1-0.2-0.1s-0.2,0.2-0.3,0.1c-0.1,0-0.1-0.1-0.2-0.1
	c-0.1,0-0.1,0-0.2,0.1c-0.5,0.3-1,0.6-1.5,0.9c0-0.2,0.1-0.3,0.2-0.4c-0.2,0.1-0.3-0.1-0.3-0.3c-0.2,0.1-0.5,0.1-0.6-0.1
	c0.3-0.1,0.5-0.4,0.6-0.7c0.2-0.1,0.5-0.2,0.7-0.3c0,0,0.1,0,0.1,0c0,0,0,0,0.1-0.1C38.4,5.5,44,4.3,50,4.3
	C53.7,4.3,57.2,4.8,60.6,5.6z M66.7,49.4C66.7,49.4,66.7,49.4,66.7,49.4c-0.3,0.1-0.5,0.1-0.7,0.1c-0.2,0-0.3,0.1-0.5,0
	c0-0.1,0.2-0.2,0.3-0.2c0,0,0.1,0,0.1,0c0,0,0-0.1,0.1-0.1c0.1-0.1,0.2-0.1,0.2,0s0.1,0.1,0.2,0.1c0.1,0,0.1,0,0.2,0
	C66.7,49.3,66.8,49.3,66.7,49.4z M63.2,49.5c-0.2,0-0.3,0.1-0.5,0.3c0.1,0,0.1,0.1,0.2,0.1c-0.1,0.2-0.3,0.3-0.5,0.4
	c0.1-0.1,0-0.2-0.1-0.3c-0.1-0.1-0.2-0.1-0.3-0.1c-0.3,0-0.7,0-1,0.1C61,50,60.9,50,60.8,50c0,0,0-0.1,0-0.1
	c-0.2,0.1-0.4-0.1-0.4-0.3c0.1,0,0.2-0.1,0.4-0.1c0.2,0,0.4,0.2,0.6,0.1c0.2,0,0.2-0.2,0.4-0.2c0,0,0-0.1-0.1-0.1
	c0.1,0,0.1-0.2,0-0.2c-0.1-0.1-0.2-0.1-0.2-0.1c0.1-0.1,0-0.2,0-0.3s-0.2,0-0.3-0.1c0,0-0.1,0-0.1,0c-0.1-0.1,0.1-0.2,0.2-0.2
	c0.3-0.1,0.6,0,0.9,0.1c0-0.1,0-0.1,0.1-0.2c0.2,0.2,0.5-0.3,0.8-0.1c0.1,0,0.1,0.1,0.1,0.1c0.1,0,0.2,0,0.3,0
	c0.2,0,0.3,0.2,0.3,0.3c0.1,0,0.3,0,0.4,0.1c-0.1,0.1,0,0.2,0.1,0.2c0.1,0,0.2,0,0.4,0c0.2,0,0.3,0.1,0.4,0.2
	c-0.1,0-0.2,0.2-0.2,0.3c-0.1,0.1-0.2-0.1-0.3-0.1c-0.1,0-0.2,0-0.2,0c-0.3,0-0.5,0.1-0.7,0.2c-0.1,0-0.1,0.1-0.2,0.1
	C63.3,49.6,63.3,49.5,63.2,49.5z M57.7,50.1c-0.1,0-0.2,0-0.3-0.1c0.3-0.1,0.2-0.4,0.6-0.3c0.3,0.1,0.7,0.2,0.9,0.4c0,0,0,0,0,0
	c0,0,0,0,0,0c-0.1,0.1-0.2,0.2-0.4,0.1c0,0-0.1,0-0.1-0.1c-0.1,0-0.1,0-0.2,0c-0.1,0-0.1,0-0.2,0C58,50.1,58,50.1,58,50
	C57.9,50,57.8,50,57.7,50.1z M58.6,48.6c-0.3,0-0.5,0.3-0.8,0.2c0.1-0.2,0.2-0.4,0.4-0.5c-0.3-0.1-0.5-0.2-0.8-0.3
	c0-0.2-0.2-0.4-0.4-0.5c-0.1-0.1-0.2-0.1-0.3-0.1c-0.1,0-0.2,0.1-0.3,0.1c-0.1,0-0.1-0.1-0.2-0.2c-0.1-0.1-0.3,0.1-0.4,0
	c-0.1,0-0.1-0.1-0.1-0.1c-0.2-0.2-0.4-0.2-0.6-0.2c-0.1,0-0.2,0-0.3,0S54.8,47,54.8,47s0.1-0.2,0.2-0.1c-0.2-0.1-0.4-0.1-0.5-0.1
	s-0.4,0.1-0.5,0.2c-0.1,0.1-0.1,0.2-0.2,0.2c-0.1,0-0.3-0.1-0.3,0c-0.1,0.1,0,0.1-0.1,0.2c-0.1,0.1-0.2,0.1-0.4,0.1
	c0,0,0-0.1,0.1-0.2c0-0.1,0.1-0.3,0.2-0.3c0.3-0.2,0.7-0.4,1.1-0.3c0-0.2,0.2-0.2,0.3-0.2s0.3,0.1,0.5,0.1c0,0,0.1,0,0.1-0.1
	c0.1,0,0.2,0.1,0.3,0.1c0.2,0.1,0.4-0.1,0.5,0c0.1,0,0.1,0.1,0.1,0.1c0.1,0.1,0.2,0.1,0.3,0.1s0.2,0.2,0.1,0.3
	c0.2-0.1,0.4-0.2,0.6-0.1c0.1,0,0.1,0.1,0.2,0.1c0.5,0.4,1.1,0.6,1.6,0.7c0.1,0,0.3,0.1,0.2,0.2c0.1,0.1,0.2,0.1,0.4,0.1
	c0.1,0,0.3,0,0.3,0.2c0.1,0,0.2,0,0.3,0c0.1,0.1,0.1,0.2,0,0.3c-0.1-0.1-0.3-0.1-0.4,0.1c0,0,0,0.1-0.1,0.1c-0.1,0-0.1,0-0.2,0
	c-0.2,0-0.3,0.1-0.5,0.1C59,48.8,58.8,48.6,58.6,48.6z M57.4,44.6c0.1,0,0.1,0,0.2,0.1c0.1,0.1,0.1,0.3,0.1,0.5c0,0,0,0,0,0.1
	c0,0,0,0,0,0c0.1,0.1,0.1,0.2,0.2,0.4c0,0.2-0.1,0.3-0.2,0.1c0-0.1,0-0.2,0-0.2c-0.1-0.1-0.2-0.2-0.2-0.2c-0.1-0.1-0.1-0.2-0.1-0.3
	c0,0,0,0,0-0.1c0,0,0,0,0,0C57.4,44.8,57.4,44.7,57.4,44.6z M34.5,93c4.8,1.7,10.1,2.7,15.5,2.7c0,0,0,0,0,0
	C44.6,95.7,39.3,94.7,34.5,93z"/>
</svg>
