<?xml version="1.0" encoding="utf-8"?>
<!-- Generator: Adobe Illustrator 26.5.0, SVG Export Plug-In . SVG Version: 6.00 Build 0)  -->
<svg version="1.1" id="Layer_1" xmlns="http://www.w3.org/2000/svg" xmlns:xlink="http://www.w3.org/1999/xlink" x="0px" y="0px"
	 viewBox="0 0 32 32" style="enable-background:new 0 0 32 32;" xml:space="preserve">
<g>
	<path d="M26.7,17.1c-0.5,5.1-4.5,9.1-9.6,9.6c-0.5,0.1-0.8-0.6-0.4-1c1.7-1.3,3.3-2.7,4.8-4.2c1.5-1.5,2.9-3.1,4.2-4.8
		C26.1,16.3,26.7,16.6,26.7,17.1z"/>
	<path d="M28.6,3.4c-1-1-2.5-1.2-3.7-0.6c-1.8,0.9-3.6,1.9-5.3,3.1c-1.1-0.4-2.3-0.6-3.5-0.6C10.1,5.3,5.3,10.1,5.3,16
		c0,1.2,0.2,2.4,0.6,3.5c-1.1,1.7-2.1,3.5-3.1,5.3c-0.6,1.2-0.4,2.7,0.6,3.7c0.6,0.6,1.4,0.9,2.3,0.9c0.5,0,1-0.1,1.4-0.3
		c1.9-0.9,3.6-1.9,5.3-3.1c3.1-2.1,6-4.5,8.6-7.3c1.9-2,3.6-4.1,5.1-6.4c1.1-1.7,2.2-3.5,3.1-5.3C29.8,5.9,29.5,4.4,28.6,3.4z
		 M6.2,27.3C5.8,27.5,5.3,27.4,5,27c-0.3-0.3-0.4-0.8-0.2-1.2c0.7-1.4,1.4-2.7,2.2-4c0.8,1.3,1.9,2.4,3.2,3.2
		C8.9,25.8,7.6,26.6,6.2,27.3z M27.3,6.2c-0.7,1.4-1.4,2.7-2.2,4c-0.8-1.3-1.9-2.4-3.2-3.2c1.3-0.8,2.6-1.6,4-2.2
		c0.2-0.1,0.3-0.1,0.5-0.1c0.3,0,0.6,0.1,0.8,0.3C27.4,5.3,27.5,5.8,27.3,6.2z"/>
</g>
</svg>
