<?xml version="1.0" encoding="utf-8"?>
<!-- Generator: Adobe Illustrator 26.5.0, SVG Export Plug-In . SVG Version: 6.00 Build 0)  -->
<svg version="1.1" id="Layer_1" xmlns="http://www.w3.org/2000/svg" xmlns:xlink="http://www.w3.org/1999/xlink" x="0px" y="0px"
	 viewBox="0 0 48 51.4" style="enable-background:new 0 0 48 51.4;" xml:space="preserve">
<g>
	<path d="M31.7,6.3L43.4,18C47.4,9.6,48,1.7,48,1.7S40.1,2.3,31.7,6.3z"/>
	<path d="M7.9,32.6l9.2,9.2c7.7-2.6,19.9-11.5,25.4-22.1L30,7.2C19.7,12.6,10.6,24.6,7.9,32.6z M33.9,21.3c0,3-2.4,5.4-5.4,5.4
		S23,24.3,23,21.3s2.4-5.4,5.4-5.4S33.9,18.3,33.9,21.3z"/>
	<path d="M17.2,43.7c-0.6,3.2-1,6-1,6s11.8-4.6,14-7.4c1.5-1.9,1.8-4.5,0.8-6.6C26.9,39.1,22.3,42,17.2,43.7z"/>
	<path d="M14,18.7c-2.1-0.9-4.7-0.7-6.6,0.8c-2.8,2.2-7.4,14-7.4,14s2.8-0.4,6-1C7.7,27.4,10.5,23,14,18.7z"/>
	<path d="M8.1,36.5c-1-1-2.8-0.8-4.1,0.4s-2.8,6.4-2.8,6.4s1.2-0.4,2.6-0.9C2.7,44.3,1.6,48,1.6,48s3.7-1.1,5.6-2.2
		c-0.5,1.4-0.9,2.6-0.9,2.6s5.2-1.6,6.4-2.8s1.4-3.1,0.4-4.1L8.1,36.5z"/>
</g>
</svg>
