<?xml version="1.0" encoding="utf-8"?>
<!-- Generator: Adobe Illustrator 26.5.0, SVG Export Plug-In . SVG Version: 6.00 Build 0)  -->
<svg version="1.1" xmlns="http://www.w3.org/2000/svg" xmlns:xlink="http://www.w3.org/1999/xlink" x="0px" y="0px"
	 viewBox="0 0 100 100" style="enable-background:new 0 0 100 100;" xml:space="preserve">
<g id="Layer_2">
</g>
<g id="Layer_1">
	<g>
		<path d="M29.6,78.1c-1,1.6-2.9,2.5-4.2,2.8c-2.2,0.4-4.3,0.6-5.9,1.9c-0.5,0.4-1.3,0.1-1.4-0.5c-0.3-1.9,0.2-4,1.1-5.3
			c-0.4,0-0.7,0.1-1.1,0.3c-0.7,0.3-1.4-0.3-1.3-1c0.6-2.2,2.1-5.1,4.4-6.4l-3.8-3.8c-0.2-0.2-0.5-0.5-0.7-0.7
			C9.3,67,4.7,75.8,3.1,81.8c-0.4,1.7,1.3,3,2.9,2.3c0.8-0.4,1.6-0.6,2.5-0.6c-2,3-3.3,7.9-2.5,12.4c0.3,1.5,2.1,2.2,3.3,1.2
			c3.8-3.1,8.7-3.4,13.8-4.4c3.8-0.8,9.9-4.1,11.4-9.7c-0.4-0.3-0.8-0.7-1.2-1.1L29.6,78.1z"/>
		<path d="M78.5,54.2c15-17,18.8-41.4,18.4-48.8c0-0.8-0.4-1.5-0.9-2s-1.2-0.8-2-0.9c-7.4-0.4-31.8,3.3-48.8,18.4l-5.4-2
			c-6-2.2-12.7-0.4-16.8,4.4l-9.4,11.1c-1.3,1.6-0.7,4,1.2,4.7l12,4.4c-3.3,5.4-5.6,10.1-7,13c-0.9,2.1-0.5,4.5,1.1,6.2l15.8,15.8
			c1.6,1.6,4.1,2.1,6.2,1.1c3-1.4,7.7-3.7,13-7l4.4,12c0.7,1.9,3.1,2.6,4.7,1.2l11-9.4c4.8-4.1,6.6-10.8,4.4-16.8L78.5,54.2z
			 M72,40.8c-3.8,3.8-9.8,3.8-13.6,0s-3.8-9.8,0-13.6s9.8-3.8,13.6,0C75.8,31,75.8,37.1,72,40.8z"/>
	</g>
</g>
</svg>
